<svg viewBox="0 0 320 230" xmlns="http://www.w3.org/2000/svg">
  <defs>
    <linearGradient id="dk-icon-bg" x1="0" y1="0" x2="0" y2="1">
      <stop offset="0%" stop-color="#162E40"/>
      <stop offset="100%" stop-color="#0F2030"/>
    </linearGradient>
    <clipPath id="dk-icon-clip">
      <rect x="99" y="19" width="122" height="122" rx="29"/>
    </clipPath>
  </defs>
  <g clip-path="url(#dk-icon-clip)">
    <rect x="99" y="19" width="122" height="122" rx="29" fill="url(#dk-icon-bg)"/>
    <text x="160" y="83" text-anchor="middle" font-family="Georgia, 'Times New Roman', serif" font-size="51" fill="#B8D8EC">bh</text>
    <path d="M99 87 Q117 79, 136 87 Q155 95, 175 85 Q194 77, 221 85 L221 141 L99 141Z" fill="#1E3648" opacity="0.7"/>
    <path d="M99 99 Q123 92, 148 99 Q172 107, 197 97 Q210 92, 221 97 L221 141 L99 141Z" fill="#253F52" opacity="0.7"/>
    <path d="M99 112 Q129 105, 160 112 Q190 119, 221 110 L221 141 L99 141Z" fill="#1A3040" opacity="0.8"/>
    <path d="M99 122 Q135 117, 166 123 Q197 129, 221 122 L221 141 L99 141Z" fill="#152838" opacity="0.8"/>
  </g>
  <text x="160" y="179" text-anchor="middle" font-family="Georgia, 'Times New Roman', serif" font-size="37" fill="#B8D8EC" letter-spacing="1.3">besideher</text>
  <text x="160" y="208" text-anchor="middle" font-family="-apple-system, system-ui, sans-serif" font-size="10" fill="#4A7A94" letter-spacing="3.2">BESIDE HER THROUGH IT ALL</text>
</svg>
